<?xml version="1.0" standalone="no"?>
<!DOCTYPE svg PUBLIC "-//W3C//DTD SVG 20010904//EN"
 "http://www.w3.org/TR/2001/REC-SVG-20010904/DTD/svg10.dtd">
<svg version="1.0" xmlns="http://www.w3.org/2000/svg"
 width="1280.000000pt" height="720.000000pt" viewBox="0 0 1280.000000 720.000000"
 preserveAspectRatio="xMidYMid meet">

<g transform="translate(0.000000,720.000000) scale(0.100000,-0.100000)"
fill="#000000" stroke="none">
<path d="M778 6898 c-10 -7 -14 -18 -10 -25 11 -17 707 -432 788 -469 39 -18
104 -43 145 -56 l74 -23 1123 -5 1124 -5 -62 -43 c-337 -238 -564 -556 -665
-932 -14 -52 -25 -105 -25 -117 0 -21 1 -22 38 -9 20 8 188 90 372 183 202
102 407 198 517 241 100 40 184 72 187 72 20 0 -3 -25 -55 -60 -82 -56 -331
-256 -481 -386 -168 -146 -589 -571 -611 -616 -15 -32 -17 -76 -17 -401 0
-338 7 -458 29 -480 4 -4 38 59 75 140 104 228 151 318 232 439 108 161 229
308 373 453 316 318 676 546 1206 766 242 101 265 112 265 126 0 24 -315 -27
-561 -90 -85 -21 -155 -38 -157 -36 -13 12 373 308 573 440 188 124 305 232
305 282 0 19 -24 51 -97 126 l-98 99 69 -7 c88 -9 271 -54 404 -99 56 -19 102
-31 102 -27 0 30 -147 181 -233 240 -189 129 -534 223 -917 251 -415 30 -617
33 -2275 37 -1405 3 -1723 2 -1737 -9z m4136 -399 c4 -3 -1 -23 -9 -43 -37
-87 -14 -166 62 -219 60 -42 120 -47 177 -13 61 36 86 79 86 150 l0 56 39 -20
c101 -51 107 -138 17 -238 -100 -110 -292 -114 -413 -9 -55 50 -88 106 -109
187 -9 36 -20 69 -24 74 -14 14 -140 35 -258 42 -118 7 -145 23 -61 36 54 8
485 5 493 -3z"/>
<path d="M5940 6199 c-29 -55 -98 -123 -157 -152 -26 -13 -148 -62 -270 -108
-123 -46 -223 -87 -223 -91 0 -4 60 -8 133 -8 257 0 594 -75 659 -147 27 -30
48 -88 55 -155 l6 -62 34 39 c75 87 109 201 93 313 -17 119 -53 200 -127 282
-43 48 -153 130 -174 130 -5 0 -18 -18 -29 -41z"/>
<path d="M8475 6151 c-184 -53 -326 -204 -364 -389 -65 -313 178 -602 505
-602 228 0 432 156 490 375 18 65 17 196 -1 264 -48 180 -196 323 -373 360
-76 16 -187 12 -257 -8z"/>
<path d="M2286 6041 c-6 -9 374 -257 469 -305 58 -30 62 -31 200 -30 119 0
146 3 173 19 27 17 261 289 270 315 5 13 -1105 14 -1112 1z"/>
<path d="M1043 5708 c-12 -5 -24 -20 -27 -32 -3 -11 -6 -197 -6 -412 0 -348
-2 -393 -16 -398 -9 -3 -140 -6 -292 -6 -282 -1 -358 -7 -373 -31 -12 -19 -11
-716 1 -738 9 -17 36 -19 345 -26 l335 -7 0 -557 c0 -309 5 -605 10 -666 20
-212 61 -358 150 -540 186 -379 519 -622 962 -701 57 -11 189 -17 419 -21 333
-5 337 -5 358 16 21 21 21 27 21 385 0 289 -3 366 -13 375 -8 6 -103 13 -253
16 -279 7 -367 21 -474 73 -99 48 -212 159 -257 253 -68 141 -66 124 -70 768
-3 385 -1 587 6 594 7 7 184 11 491 12 444 3 482 4 500 20 19 17 20 33 20 375
0 292 -3 360 -14 376 -14 18 -33 19 -510 22 l-495 3 -3 409 c-3 377 -4 411
-21 427 -16 17 -48 18 -395 20 -252 1 -384 -1 -399 -9z"/>
<path d="M4655 5170 c-124 -69 -374 -285 -528 -455 -369 -409 -584 -828 -668
-1302 -20 -110 -23 -163 -23 -368 0 -202 3 -263 23 -385 39 -248 112 -500 203
-704 134 -298 401 -674 535 -753 24 -14 46 -24 48 -21 2 2 -11 94 -30 203 -60
352 -60 363 -60 1385 0 995 1 1020 50 1265 84 420 241 771 496 1112 17 22 30
46 28 52 -2 5 -35 -8 -74 -29z"/>
<path d="M5880 4854 c-14 -2 -68 -11 -120 -20 -188 -32 -422 -124 -575 -227
-370 -249 -613 -634 -712 -1125 -27 -137 -25 -453 5 -592 93 -430 332 -823
642 -1056 168 -127 404 -224 636 -264 331 -57 619 -27 859 90 119 57 173 94
319 212 60 49 110 87 111 86 2 -2 -1 -61 -5 -133 -18 -271 -129 -491 -324
-639 -176 -134 -387 -194 -641 -183 -205 9 -344 47 -564 152 -73 36 -143 65
-155 65 -13 0 -32 -10 -44 -22 -11 -13 -66 -122 -122 -243 -138 -298 -152
-333 -145 -356 10 -30 262 -151 435 -208 256 -84 594 -125 835 -101 707 69
1220 453 1454 1088 43 117 79 290 91 442 7 91 10 604 8 1563 -3 1401 -3 1429
-22 1443 -16 11 -86 14 -387 14 -341 0 -368 -1 -389 -18 -22 -18 -23 -28 -29
-187 l-6 -168 -50 42 c-160 133 -255 192 -405 252 -169 68 -286 90 -495 94
-99 2 -191 2 -205 -1z m481 -759 c242 -48 479 -235 598 -472 76 -153 101 -319
81 -535 -38 -399 -284 -687 -665 -779 -120 -29 -313 -27 -437 5 -365 93 -614
390 -658 786 -23 212 32 443 147 617 204 309 560 452 934 378z"/>
<path d="M10875 4845 c-212 -39 -422 -139 -584 -278 -30 -26 -58 -47 -62 -47
-4 0 -9 63 -11 139 -3 120 -6 142 -22 160 -19 21 -26 21 -401 21 -362 0 -384
-1 -406 -19 l-24 -19 -3 -619 c-2 -340 0 -1061 4 -1602 6 -944 7 -984 25
-1002 18 -18 41 -19 399 -19 l381 0 24 25 25 24 0 873 c1 863 4 954 36 1093
61 264 263 467 517 519 158 33 345 13 468 -49 164 -82 294 -250 350 -451 21
-78 22 -96 30 -1028 4 -523 10 -960 13 -972 4 -13 14 -25 24 -28 9 -3 187 -6
394 -8 351 -3 378 -2 395 15 17 17 18 69 18 1020 0 991 0 1003 -22 1124 -88
485 -346 840 -744 1027 -105 49 -211 81 -338 102 -107 17 -390 17 -486 -1z"/>
<path d="M8220 4820 c-20 -20 -20 -33 -20 -1604 0 -1092 3 -1592 11 -1614 6
-17 20 -32 32 -36 39 -10 737 -7 757 4 11 6 23 27 28 48 6 22 7 689 3 1608 -6
1527 -7 1573 -25 1593 -19 21 -26 21 -393 21 -360 0 -374 -1 -393 -20z"/>
<path d="M7962 899 c-24 -4 -60 -21 -80 -38 -59 -47 -262 -257 -262 -271 0
-10 48 -11 238 -6 130 4 503 11 827 16 855 15 2358 56 2710 75 418 22 1044 67
1065 76 22 10 23 12 7 20 -25 15 -961 69 -1517 89 -319 11 -1044 25 -2040 40
-760 11 -888 11 -948 -1z"/>
<path d="M3050 884 c-1471 -31 -1817 -41 -2369 -74 -307 -19 -393 -29 -351
-44 167 -56 1188 -111 2730 -146 256 -6 722 -17 1035 -24 343 -9 574 -10 580
-5 11 10 -59 84 -207 220 l-98 89 -362 -1 c-200 -1 -631 -8 -958 -15z"/>
</g>
</svg>
