<?xml version="1.0" standalone="no"?>
<!DOCTYPE svg PUBLIC "-//W3C//DTD SVG 20010904//EN"
 "http://www.w3.org/TR/2001/REC-SVG-20010904/DTD/svg10.dtd">
<svg version="1.0" xmlns="http://www.w3.org/2000/svg"
 width="1206.000000pt" height="784.000000pt" viewBox="0 0 1206.000000 784.000000"
 preserveAspectRatio="xMidYMid meet">

<g transform="translate(0.000000,784.000000) scale(0.100000,-0.100000)"
fill="#000000" stroke="none">
<path d="M484 7472 c-283 -2 -344 -5 -354 -17 -6 -8 -9 -19 -6 -24 14 -22 815
-501 962 -574 39 -20 117 -52 175 -73 l104 -37 1397 -6 c768 -3 1399 -9 1402
-12 3 -3 -45 -43 -107 -90 -398 -298 -669 -697 -787 -1160 -25 -98 -26 -129
-2 -129 9 0 177 79 372 176 195 97 423 207 505 246 181 85 496 211 504 202 7
-7 6 -8 -198 -163 -284 -217 -535 -435 -800 -696 -326 -321 -446 -452 -455
-496 -10 -50 -7 -916 4 -988 5 -35 13 -68 19 -74 6 -6 31 34 72 119 217 454
272 550 434 764 171 226 430 495 630 655 352 282 662 460 1204 692 308 132
351 152 351 165 0 28 -323 -22 -664 -102 -116 -28 -215 -50 -220 -50 -40 0
344 299 679 530 300 206 418 319 401 386 -4 13 -59 78 -123 145 l-118 122 55
-7 c155 -20 394 -79 648 -161 62 -21 -166 226 -280 301 -150 100 -397 191
-658 244 -380 77 -733 97 -1770 105 -884 6 -2930 11 -3376 7z m4816 -521 c0
-10 -7 -38 -15 -61 -35 -100 -2 -196 86 -255 85 -56 165 -55 246 4 50 36 74
87 81 168 2 35 7 63 9 63 13 0 72 -36 95 -58 59 -55 57 -127 -5 -219 -130
-189 -437 -189 -590 0 -46 56 -70 106 -96 196 -11 41 -24 78 -29 83 -13 13
-147 35 -292 48 -135 12 -160 17 -160 30 0 15 39 17 358 19 299 1 312 0 312
-18z"/>
<path d="M6583 6587 c-46 -77 -141 -163 -220 -199 -37 -17 -165 -68 -283 -113
-118 -46 -235 -92 -260 -103 -42 -18 -43 -20 -20 -25 14 -3 99 -8 190 -11 91
-3 212 -12 270 -21 230 -35 443 -101 493 -153 34 -35 64 -104 72 -167 3 -27 9
-63 12 -78 l5 -28 33 38 c43 49 89 133 109 202 48 162 -12 396 -137 536 -52
59 -199 175 -221 175 -6 0 -26 -24 -43 -53z"/>
<path d="M2037 6392 c-15 -6 2 -22 85 -78 154 -106 399 -260 480 -302 l71 -37
181 0 c158 0 186 2 209 18 28 18 225 239 299 335 22 29 38 56 34 60 -10 9
-1336 13 -1359 4z"/>
<path d="M4994 5310 c-169 -89 -528 -406 -744 -656 -397 -461 -635 -926 -752
-1473 -31 -144 -31 -150 -35 -493 -4 -318 -3 -360 17 -490 90 -595 287 -1075
636 -1546 129 -174 322 -357 349 -331 2 2 -12 96 -30 209 -59 353 -66 428 -75
795 -12 450 -12 1490 0 1940 8 299 13 371 34 495 95 559 287 1020 609 1469 90
124 89 132 -9 81z"/>
<path d="M8852 4486 c-128 -42 -202 -152 -202 -301 0 -132 57 -229 163 -276
44 -20 68 -24 157 -24 58 0 124 6 147 13 62 19 124 70 158 132 28 51 30 63 30
155 0 81 -4 108 -21 145 -27 58 -75 105 -139 138 -42 22 -65 26 -150 29 -66 2
-115 -2 -143 -11z"/>
<path d="M6840 3170 l0 -1210 280 0 280 0 0 429 c0 475 6 537 59 646 35 71 95
136 154 167 34 19 58 23 129 23 80 0 89 -2 130 -31 29 -21 53 -50 73 -90 l30
-59 3 -542 3 -543 280 0 279 0 0 546 c0 444 -3 566 -16 652 -28 192 -97 338
-206 437 -74 67 -135 98 -248 126 -146 37 -328 16 -448 -52 -77 -43 -134 -91
-179 -150 l-38 -50 -5 453 -5 453 -277 3 -278 2 0 -1210z"/>
<path d="M10015 4364 c-115 -24 -215 -77 -285 -150 -106 -110 -150 -244 -150
-455 l0 -109 -115 0 -115 0 0 -180 0 -180 115 0 115 0 0 -680 0 -680 285 0
285 0 0 680 0 680 135 0 135 0 0 180 0 180 -135 0 -135 0 0 90 c0 54 6 104 14
123 27 66 101 88 211 62 37 -8 70 -14 72 -11 2 2 28 97 58 210 36 143 50 209
42 212 -27 9 -346 44 -401 43 -34 0 -92 -7 -131 -15z"/>
<path d="M5545 4345 c-49 -7 -119 -20 -155 -29 -92 -24 -254 -106 -326 -164
-156 -128 -231 -330 -204 -548 19 -149 62 -236 167 -335 124 -116 198 -157
628 -344 149 -64 289 -125 312 -135 65 -28 131 -78 148 -110 8 -16 15 -55 15
-86 0 -55 -2 -59 -43 -98 -48 -47 -86 -61 -207 -75 -148 -19 -298 10 -390 74
-63 44 -110 130 -110 201 l0 34 -273 0 c-151 0 -276 -2 -278 -5 -3 -2 -2 -39
3 -81 23 -219 114 -393 274 -526 77 -64 234 -141 354 -174 84 -23 120 -27 302
-31 167 -4 226 -2 310 12 366 61 583 228 654 505 24 92 24 276 0 355 -38 126
-103 220 -213 308 -109 87 -213 141 -535 277 -288 121 -424 184 -458 212 -32
27 -50 64 -50 105 0 54 39 101 112 134 48 22 67 24 188 24 121 0 140 -3 183
-24 65 -32 131 -108 155 -179 l19 -57 271 -3 272 -2 0 34 c0 91 -57 281 -112
374 -53 90 -179 210 -273 259 -190 99 -468 136 -740 98z"/>
<path d="M10740 3870 l0 -220 -105 0 -105 0 2 -177 3 -178 103 -3 102 -3 0
-459 c0 -502 4 -553 58 -660 41 -84 142 -180 232 -223 109 -51 186 -67 326
-67 86 0 141 6 199 20 129 33 215 63 215 76 0 12 -67 335 -76 365 -4 15 -10
15 -67 -3 -34 -11 -96 -22 -137 -25 -85 -5 -128 11 -164 60 -20 28 -21 42 -24
473 l-3 444 198 2 198 3 3 178 2 177 -200 0 -200 0 0 220 0 220 -280 0 -280 0
0 -220z"/>
<path d="M8700 2800 l0 -870 280 0 280 0 0 870 0 870 -280 0 -280 0 0 -870z"/>
<path d="M5875 1650 c-109 -5 -137 -10 -174 -29 -25 -13 -107 -86 -189 -170
-148 -149 -180 -187 -168 -198 17 -17 3173 53 4381 97 427 16 1350 74 1584
100 85 10 119 23 85 34 -62 18 -1023 76 -1759 106 -467 18 -1954 47 -2875 55
-338 3 -646 7 -685 8 -38 2 -128 0 -200 -3z"/>
</g>
</svg>
